<svg xmlns="http://www.w3.org/2000/svg" viewBox="0 0 103.11 89.82">
  <circle cx="51.73" cy="16.99" r="9.4" fill="#fff" stroke="#2b314b" stroke-linecap="round" stroke-linejoin="round" stroke-width="2"/>
  <path fill="#ff7d7e" stroke="#2b314b" stroke-linecap="round" stroke-linejoin="round" stroke-width="2" d="M58.09 29.44H45.34a8.16 8.16 0 0 0-8.16 8.16v19.29a2.87 2.87 0 1 0 5.74 0h.2v26.35a3.59 3.59 0 0 0 7.17 0V60.86a1.44 1.44 0 1 1 2.87 0v22.38a3.59 3.59 0 0 0 7.18 0V56h.2c0 1.59.48 3.58 2.87 3.64a2.86 2.86 0 0 0 2.84-2.45V37.6a8.17 8.17 0 0 0-8.16-8.16z"/>
  <path fill="none" stroke="#5dd571" stroke-linecap="round" stroke-linejoin="round" stroke-width="2" d="M63.89 65.85c6 .92 10 2.49 10 4.28 0 2.83-10 5.13-22.36 5.13S29.2 73 29.2 70.13c0-1.84 4.23-3.46 10.59-4.36"/>
</svg>
