<svg xmlns="http://www.w3.org/2000/svg" viewBox="0 0 119.77 119.88"><defs><style>.cls-1{fill:#d10042;}.cls-2{fill:none;stroke:#d10042;stroke-miterlimit:10;stroke-width:3.5px;}</style></defs><title>icon food sml</title><g id="Layer_2" data-name="Layer 2"><g id="Layer_1-2" data-name="Layer 1"><path class="cls-1" d="M59.88,4A55.89,55.89,0,1,1,4,59.88,55.95,55.95,0,0,1,59.88,4m0-4a59.89,59.89,0,1,0,59.89,59.88A59.88,59.88,0,0,0,59.88,0Z"/><path class="cls-2" d="M57.26,107.55c0-9.55-5.17-16.84-15.91-16.84C41.35,102,48.37,107.55,57.26,107.55Z"/><path class="cls-2" d="M57.26,89c0-9.54-5.17-16.83-15.91-16.83C41.35,83.43,48.37,89,57.26,89Z"/><path class="cls-2" d="M57.26,70.44c0-9.55-5.17-16.84-15.91-16.84C41.35,64.87,48.37,70.44,57.26,70.44Z"/><path class="cls-2" d="M57.26,51.88c0-9.54-5.17-16.83-15.91-16.83C41.35,46.32,48.37,51.88,57.26,51.88Z"/><path class="cls-2" d="M62.63,107.55c0-9.55,5.17-16.84,15.91-16.84C78.54,102,71.51,107.55,62.63,107.55Z"/><path class="cls-2" d="M62.63,89c0-9.54,5.17-16.83,15.91-16.83C78.54,83.43,71.51,89,62.63,89Z"/><path class="cls-2" d="M62.63,70.44c0-9.55,5.17-16.84,15.91-16.84C78.54,64.87,71.51,70.44,62.63,70.44Z"/><path class="cls-2" d="M62.63,51.88c0-9.54,5.17-16.83,15.91-16.83C78.54,46.32,71.51,51.88,62.63,51.88Z"/><path class="cls-2" d="M60,39.33c6.51-7,7.7-15.84-.16-23.16C52.15,24.41,53.49,33.28,60,39.33Z"/><line class="cls-2" x1="59.94" y1="119.88" x2="59.94" y2="39.33"/></g></g></svg>