<svg xmlns="http://www.w3.org/2000/svg" id="Mail" viewBox="0 0 103.11 89.82">
  <defs>
    <style>
      .cls-3,.cls-5{stroke:#2b314b;stroke-linecap:round;stroke-linejoin:round;stroke-width:2px}.cls-3{fill:#fff}.cls-5{fill:none}.cls-6{fill:#2b314b}
    </style>
  </defs>
  <path fill="#94d8fd" stroke="#2b314b" stroke-linecap="round" stroke-linejoin="round" stroke-width="2" d="M33.8 61.06h-7.39c-.82 0-1.48-1.09-1.48-1.91v-7.39a1.46 1.46 0 0 1 .51-1.11 1.48 1.48 0 0 1 1.18-.35l9.07 2.63 10.73-5.77-.42-1.08-.89-1.34-9.22 3.95c-.33.14-.71.38-1 .26l-8.64-2.67H14.58c-2.44 0-4.43 1.56-4.43 4V65.5h4.69v20.69h5.65V66.55c0-.82.66-1 1.48-1h10.35c.82 0 1.48.23 1.48 1v10.77h4.43V65.07c0-2.45-1.99-4.01-4.43-4.01z"/>
  <path fill="#ffb82d" stroke="#2b314b" stroke-linecap="round" stroke-linejoin="round" stroke-width="2" d="M80.14 28.26c0 .82-.66 1.91-1.48 1.91H57.83l-8.22 7-4.32 7.31 1.26 2.64 5.08-6.65a1.54 1.54 0 0 1 .35-.37l4.69-4.44A1.47 1.47 0 0 1 59 36.87v33.21h5.65V50.43c0-.81.66-1 1.48-1h10.38c.82 0 1.48.23 1.48 1v10.78h4.44V49c0-2.45-2-4-4.44-4H70.6c-.82 0-1.48-1.09-1.48-1.91v-7.7c0-.81.66-1 1.48-1h8.87c2.45 0 4.44-2.42 4.44-4.87V21.3h-3.77z"/>
  <path d="M64 27.3a7.61 7.61 0 1 0-7.61-7.61A7.62 7.62 0 0 0 64 27.3zM19.83 43.06a7.26 7.26 0 1 0-7.26-7.26 7.27 7.27 0 0 0 7.26 7.26z" class="cls-3"/>
  <path fill="#ff7d7e" stroke="#2b314b" stroke-linecap="round" stroke-linejoin="round" stroke-width="2" d="M87.88 11.48l-7.77 2.54.05-4.68 7.72 2.14z"/>
  <path d="M20.15 46.28v10.5M14.86 55.23v10.5M61.35 30.17l3.18 5.75 2.79-5.7M10.54 86.83H30.7l.19-8.92h20.69v-7.47h19.3v-9.06h22.09M80.11 23.51V9.64" class="cls-5"/>
  <circle cx="33.46" cy="22.62" r="1.24" class="cls-6"/>
  <circle cx="38.4" cy="22.62" r="1.24" class="cls-6"/>
  <circle cx="43.35" cy="22.62" r="1.24" class="cls-6"/>
</svg>
